<svg xmlns="http://www.w3.org/2000/svg" xmlns:xlink="http://www.w3.org/1999/xlink" width="500" zoomAndPan="magnify" viewBox="0 0 375 374.999991" height="500" preserveAspectRatio="xMidYMid meet" version="1.0"><defs><clipPath id="9c25961e86"><path d="M 112.5 178 L 262.5 178 L 262.5 197 L 112.5 197 Z M 112.5 178 " clip-rule="nonzero"/></clipPath><clipPath id="22e8df6156"><path d="M 112.5 222 L 262.5 222 L 262.5 240.84375 L 112.5 240.84375 Z M 112.5 222 " clip-rule="nonzero"/></clipPath><clipPath id="3fcd70a755"><path d="M 112.5 134.34375 L 262.5 134.34375 L 262.5 154 L 112.5 154 Z M 112.5 134.34375 " clip-rule="nonzero"/></clipPath></defs><g clip-path="url(#9c25961e86)"><path fill="#000000" d="M 253.125 178.203125 L 121.875 178.203125 C 116.695312 178.203125 112.5 182.40625 112.5 187.59375 C 112.5 192.78125 116.695312 196.984375 121.875 196.984375 L 253.125 196.984375 C 258.304688 196.984375 262.5 192.78125 262.5 187.59375 C 262.5 182.40625 258.304688 178.203125 253.125 178.203125 Z M 253.125 178.203125 " fill-opacity="1" fill-rule="nonzero"/></g><g clip-path="url(#22e8df6156)"><path fill="#000000" d="M 253.125 222.03125 L 121.875 222.03125 C 116.695312 222.03125 112.5 226.234375 112.5 231.421875 C 112.5 236.609375 116.695312 240.8125 121.875 240.8125 L 253.125 240.8125 C 258.304688 240.8125 262.5 236.609375 262.5 231.421875 C 262.5 226.234375 258.304688 222.03125 253.125 222.03125 Z M 253.125 222.03125 " fill-opacity="1" fill-rule="nonzero"/></g><g clip-path="url(#3fcd70a755)"><path fill="#000000" d="M 121.875 153.15625 L 253.125 153.15625 C 258.304688 153.15625 262.5 148.953125 262.5 143.765625 C 262.5 138.578125 258.304688 134.375 253.125 134.375 L 121.875 134.375 C 116.695312 134.375 112.5 138.578125 112.5 143.765625 C 112.5 148.953125 116.695312 153.15625 121.875 153.15625 Z M 121.875 153.15625 " fill-opacity="1" fill-rule="nonzero"/></g><path stroke-linecap="butt" transform="matrix(0.75, 0, 0, 0.75, 127.499996, 185.999988)" fill="none" stroke-linejoin="miter" d="M 0.00000516333 2.000016 L 160.000016 2.000016 " stroke="#000000" stroke-width="4" stroke-opacity="1" stroke-miterlimit="4"/></svg>