<svg xmlns="http://www.w3.org/2000/svg" xmlns:xlink="http://www.w3.org/1999/xlink" width="500" zoomAndPan="magnify" viewBox="0 0 375 374.999991" height="500" preserveAspectRatio="xMidYMid meet" version="1.0"><defs><g/><clipPath id="9e3bc224aa"><path d="M 181.792969 274.539062 L 193.042969 274.539062 L 193.042969 285.039062 L 181.792969 285.039062 Z M 181.792969 274.539062 " clip-rule="nonzero"/></clipPath><clipPath id="f517bf38b6"><path d="M 165.570312 274.539062 L 176.820312 274.539062 L 176.820312 285.039062 L 165.570312 285.039062 Z M 165.570312 274.539062 " clip-rule="nonzero"/></clipPath><clipPath id="b8d67f7835"><path d="M 198.015625 274.539062 L 209.265625 274.539062 L 209.265625 285.039062 L 198.015625 285.039062 Z M 198.015625 274.539062 " clip-rule="nonzero"/></clipPath><clipPath id="928bf16eae"><path d="M 149.347656 274.539062 L 160.597656 274.539062 L 160.597656 285.039062 L 149.347656 285.039062 Z M 149.347656 274.539062 " clip-rule="nonzero"/></clipPath><clipPath id="ebb907395d"><path d="M 214.238281 274.539062 L 225.488281 274.539062 L 225.488281 285.039062 L 214.238281 285.039062 Z M 214.238281 274.539062 " clip-rule="nonzero"/></clipPath><clipPath id="161f916f68"><path d="M 61.171875 262.308594 L 88.171875 262.308594 L 88.171875 266.808594 L 61.171875 266.808594 Z M 61.171875 262.308594 " clip-rule="nonzero"/></clipPath><clipPath id="3656e710d1"><path d="M 285.921875 262.308594 L 312.921875 262.308594 L 312.921875 266.808594 L 285.921875 266.808594 Z M 285.921875 262.308594 " clip-rule="nonzero"/></clipPath><clipPath id="82ffcd26a9"><path d="M 157 157 L 227 157 L 227 207.945312 L 157 207.945312 Z M 157 157 " clip-rule="nonzero"/></clipPath><clipPath id="8cc8cee592"><path d="M 142.335938 113 L 240 113 L 240 178 L 142.335938 178 Z M 142.335938 113 " clip-rule="nonzero"/></clipPath><clipPath id="96f9f0b660"><path d="M 145 111.945312 L 244.335938 111.945312 L 244.335938 176 L 145 176 Z M 145 111.945312 " clip-rule="nonzero"/></clipPath></defs><rect x="-37.5" width="450" fill="#ffffff" y="-37.499999" height="449.999989" fill-opacity="1"/><rect x="-37.5" width="450" fill="#0c3433" y="-37.499999" height="449.999989" fill-opacity="1"/><g fill="#fbdcc9" fill-opacity="1"><g transform="translate(112.491846, 232.875653)"><g><path d="M 7.828125 -17.609375 L 7.828125 -4.90625 C 7.828125 -4.5 7.8125 -4.054688 7.78125 -3.578125 C 7.757812 -3.109375 7.664062 -2.664062 7.5 -2.25 C 7.332031 -1.84375 7.078125 -1.5 6.734375 -1.21875 C 6.390625 -0.945312 5.894531 -0.8125 5.25 -0.8125 C 4.695312 -0.8125 4.238281 -0.910156 3.875 -1.109375 C 3.519531 -1.304688 3.238281 -1.554688 3.03125 -1.859375 C 2.820312 -2.160156 2.671875 -2.484375 2.578125 -2.828125 C 2.484375 -3.171875 2.4375 -3.476562 2.4375 -3.75 L 0.25 -3.75 C 0.28125 -2.457031 0.695312 -1.457031 1.5 -0.75 C 2.3125 -0.0507812 3.519531 0.296875 5.125 0.296875 C 6.289062 0.296875 7.207031 0.125 7.875 -0.21875 C 8.539062 -0.5625 9.035156 -0.992188 9.359375 -1.515625 C 9.691406 -2.046875 9.898438 -2.617188 9.984375 -3.234375 C 10.066406 -3.859375 10.109375 -4.441406 10.109375 -4.984375 L 10.109375 -17.609375 Z M 7.828125 -17.609375 "/></g></g></g><g fill="#fbdcc9" fill-opacity="1"><g transform="translate(127.457108, 232.875653)"><g><path d="M 12.796875 -5.1875 L 15.21875 0 L 17.65625 0 L 9.453125 -17.609375 L 8.203125 -17.609375 L 0.75 0 L 1.90625 0 L 4.125 -5.1875 Z M 12.28125 -6.3125 L 4.609375 -6.3125 L 8.21875 -14.796875 L 8.328125 -14.796875 Z M 12.28125 -6.3125 "/></g></g></g><g fill="#fbdcc9" fill-opacity="1"><g transform="translate(147.703768, 232.875653)"><g><path d="M 3.015625 -17.609375 L 3.015625 0 L 5.3125 0 L 5.3125 -7.765625 L 6.421875 -7.765625 C 6.890625 -7.765625 7.273438 -7.722656 7.578125 -7.640625 C 7.890625 -7.554688 8.171875 -7.414062 8.421875 -7.21875 C 8.679688 -7.019531 8.914062 -6.757812 9.125 -6.4375 C 9.34375 -6.125 9.601562 -5.726562 9.90625 -5.25 L 11.90625 -2.3125 C 12.15625 -1.925781 12.398438 -1.570312 12.640625 -1.25 C 12.878906 -0.9375 13.140625 -0.664062 13.421875 -0.4375 C 13.710938 -0.207031 14.035156 -0.03125 14.390625 0.09375 C 14.753906 0.226562 15.191406 0.296875 15.703125 0.296875 C 16.066406 0.296875 16.363281 0.28125 16.59375 0.25 C 16.832031 0.21875 17.070312 0.132812 17.3125 0 L 17.3125 -0.9375 C 17.226562 -0.914062 17.144531 -0.898438 17.0625 -0.890625 C 16.976562 -0.878906 16.890625 -0.875 16.796875 -0.875 C 16.453125 -0.875 16.144531 -0.925781 15.875 -1.03125 C 15.601562 -1.132812 15.347656 -1.28125 15.109375 -1.46875 C 14.878906 -1.664062 14.65625 -1.898438 14.4375 -2.171875 C 14.21875 -2.453125 13.992188 -2.769531 13.765625 -3.125 C 13.054688 -4.144531 12.507812 -4.957031 12.125 -5.5625 C 11.738281 -6.175781 11.429688 -6.648438 11.203125 -6.984375 C 10.984375 -7.328125 10.800781 -7.570312 10.65625 -7.71875 C 10.507812 -7.875 10.335938 -8 10.140625 -8.09375 L 9.890625 -8.21875 L 9.890625 -8.328125 C 10.691406 -8.378906 11.378906 -8.554688 11.953125 -8.859375 C 12.535156 -9.160156 13.007812 -9.535156 13.375 -9.984375 C 13.75 -10.441406 14.019531 -10.929688 14.1875 -11.453125 C 14.351562 -11.984375 14.4375 -12.5 14.4375 -13 C 14.4375 -13.457031 14.347656 -13.953125 14.171875 -14.484375 C 13.992188 -15.023438 13.691406 -15.523438 13.265625 -15.984375 C 12.835938 -16.441406 12.253906 -16.828125 11.515625 -17.140625 C 10.785156 -17.453125 9.859375 -17.609375 8.734375 -17.609375 Z M 5.3125 -16.5 L 7.84375 -16.5 C 8.488281 -16.5 9.066406 -16.40625 9.578125 -16.21875 C 10.085938 -16.039062 10.523438 -15.785156 10.890625 -15.453125 C 11.265625 -15.128906 11.546875 -14.738281 11.734375 -14.28125 C 11.929688 -13.832031 12.03125 -13.335938 12.03125 -12.796875 C 12.03125 -12.347656 11.941406 -11.890625 11.765625 -11.421875 C 11.585938 -10.960938 11.320312 -10.546875 10.96875 -10.171875 C 10.613281 -9.796875 10.179688 -9.488281 9.671875 -9.25 C 9.160156 -9.019531 8.570312 -8.90625 7.90625 -8.90625 L 5.3125 -8.90625 Z M 5.3125 -16.5 "/></g></g></g><g fill="#fbdcc9" fill-opacity="1"><g transform="translate(167.598334, 232.875653)"><g><path d="M 3.265625 0 L 3.265625 -17.609375 L 9.0625 -17.609375 C 10.445312 -17.609375 11.71875 -17.382812 12.875 -16.9375 C 14.03125 -16.5 15.023438 -15.890625 15.859375 -15.109375 C 16.691406 -14.328125 17.335938 -13.398438 17.796875 -12.328125 C 18.253906 -11.253906 18.484375 -10.097656 18.484375 -8.859375 C 18.484375 -7.566406 18.242188 -6.378906 17.765625 -5.296875 C 17.296875 -4.210938 16.644531 -3.273438 15.8125 -2.484375 C 14.976562 -1.703125 14.007812 -1.09375 12.90625 -0.65625 C 11.800781 -0.21875 10.617188 0 9.359375 0 Z M 5.5625 -1.109375 L 8.328125 -1.109375 C 9.703125 -1.109375 10.867188 -1.335938 11.828125 -1.796875 C 12.796875 -2.253906 13.585938 -2.851562 14.203125 -3.59375 C 14.828125 -4.332031 15.28125 -5.160156 15.5625 -6.078125 C 15.851562 -6.992188 16 -7.90625 16 -8.8125 C 16 -9.8125 15.832031 -10.773438 15.5 -11.703125 C 15.164062 -12.640625 14.675781 -13.460938 14.03125 -14.171875 C 13.382812 -14.890625 12.582031 -15.457031 11.625 -15.875 C 10.664062 -16.289062 9.566406 -16.5 8.328125 -16.5 L 5.5625 -16.5 Z M 5.5625 -1.109375 "/></g></g></g><g fill="#fbdcc9" fill-opacity="1"><g transform="translate(188.67492, 232.875653)"><g><path d="M 4.03125 -17.609375 L 4.03125 0 L 6.3125 0 L 6.3125 -17.609375 Z M 4.03125 -17.609375 "/></g></g></g><g fill="#fbdcc9" fill-opacity="1"><g transform="translate(200.848595, 232.875653)"><g><path d="M 17.203125 -17.609375 L 17.203125 -4.15625 L 17.109375 -4.15625 L 3.140625 -17.90625 L 3.015625 -17.90625 L 3.015625 0 L 4.171875 0 L 4.171875 -13.453125 L 4.28125 -13.453125 L 18.234375 0.296875 L 18.359375 0.296875 L 18.359375 -17.609375 Z M 17.203125 -17.609375 "/></g></g></g><g fill="#fbdcc9" fill-opacity="1"><g transform="translate(224.062897, 232.875653)"><g/></g></g><g fill="#fbdcc9" fill-opacity="1"><g transform="translate(234.702458, 232.875653)"><g><path d="M 3.265625 0 L 3.265625 -17.609375 L 9.0625 -17.609375 C 10.445312 -17.609375 11.71875 -17.382812 12.875 -16.9375 C 14.03125 -16.5 15.023438 -15.890625 15.859375 -15.109375 C 16.691406 -14.328125 17.335938 -13.398438 17.796875 -12.328125 C 18.253906 -11.253906 18.484375 -10.097656 18.484375 -8.859375 C 18.484375 -7.566406 18.242188 -6.378906 17.765625 -5.296875 C 17.296875 -4.210938 16.644531 -3.273438 15.8125 -2.484375 C 14.976562 -1.703125 14.007812 -1.09375 12.90625 -0.65625 C 11.800781 -0.21875 10.617188 0 9.359375 0 Z M 5.5625 -1.109375 L 8.328125 -1.109375 C 9.703125 -1.109375 10.867188 -1.335938 11.828125 -1.796875 C 12.796875 -2.253906 13.585938 -2.851562 14.203125 -3.59375 C 14.828125 -4.332031 15.28125 -5.160156 15.5625 -6.078125 C 15.851562 -6.992188 16 -7.90625 16 -8.8125 C 16 -9.8125 15.832031 -10.773438 15.5 -11.703125 C 15.164062 -12.640625 14.675781 -13.460938 14.03125 -14.171875 C 13.382812 -14.890625 12.582031 -15.457031 11.625 -15.875 C 10.664062 -16.289062 9.566406 -16.5 8.328125 -16.5 L 5.5625 -16.5 Z M 5.5625 -1.109375 "/></g></g></g><g fill="#fbdcc9" fill-opacity="1"><g transform="translate(255.779044, 232.875653)"><g><path d="M 2.015625 -17.609375 L 2.015625 -6.796875 C 2.015625 -6.109375 2.082031 -5.347656 2.21875 -4.515625 C 2.351562 -3.679688 2.671875 -2.90625 3.171875 -2.1875 C 3.671875 -1.476562 4.414062 -0.882812 5.40625 -0.40625 C 6.394531 0.0625 7.742188 0.296875 9.453125 0.296875 C 10.523438 0.296875 11.476562 0.128906 12.3125 -0.203125 C 13.144531 -0.535156 13.84375 -0.992188 14.40625 -1.578125 C 14.96875 -2.171875 15.390625 -2.859375 15.671875 -3.640625 C 15.953125 -4.421875 16.09375 -5.253906 16.09375 -6.140625 L 16.09375 -17.609375 L 15 -17.609375 L 15 -6.96875 C 15 -6.601562 14.988281 -6.226562 14.96875 -5.84375 C 14.945312 -5.46875 14.894531 -5.09375 14.8125 -4.71875 C 14.726562 -4.34375 14.597656 -3.96875 14.421875 -3.59375 C 14.242188 -3.226562 13.988281 -2.859375 13.65625 -2.484375 C 13.050781 -1.835938 12.367188 -1.394531 11.609375 -1.15625 C 10.859375 -0.925781 10.070312 -0.8125 9.25 -0.8125 C 8.550781 -0.8125 7.925781 -0.914062 7.375 -1.125 C 6.832031 -1.34375 6.320312 -1.671875 5.84375 -2.109375 C 5.445312 -2.441406 5.148438 -2.773438 4.953125 -3.109375 C 4.753906 -3.453125 4.601562 -3.785156 4.5 -4.109375 C 4.40625 -4.441406 4.347656 -4.773438 4.328125 -5.109375 C 4.304688 -5.441406 4.296875 -5.773438 4.296875 -6.109375 L 4.296875 -17.609375 Z M 2.015625 -17.609375 "/></g></g></g><g fill="#fbdcc9" fill-opacity="1"><g transform="translate(129.896634, 267.282029)"><g><path d="M 5.3125 -7.34375 C 5.75 -7.226562 6.21875 -7.128906 6.71875 -7.046875 C 7.21875 -6.972656 7.769531 -6.9375 8.375 -6.9375 C 9.394531 -6.9375 10.300781 -7.078125 11.09375 -7.359375 C 11.882812 -7.648438 12.539062 -8.039062 13.0625 -8.53125 C 13.59375 -9.03125 13.992188 -9.601562 14.265625 -10.25 C 14.535156 -10.894531 14.671875 -11.585938 14.671875 -12.328125 C 14.671875 -13.035156 14.550781 -13.707031 14.3125 -14.34375 C 14.082031 -14.988281 13.726562 -15.550781 13.25 -16.03125 C 12.769531 -16.507812 12.164062 -16.890625 11.4375 -17.171875 C 10.71875 -17.460938 9.875 -17.609375 8.90625 -17.609375 L 3.015625 -17.609375 L 3.015625 0 L 5.3125 0 Z M 5.3125 -16.5 L 7.953125 -16.5 C 8.648438 -16.5 9.265625 -16.375 9.796875 -16.125 C 10.335938 -15.875 10.785156 -15.539062 11.140625 -15.125 C 11.492188 -14.71875 11.757812 -14.257812 11.9375 -13.75 C 12.113281 -13.238281 12.203125 -12.726562 12.203125 -12.21875 C 12.203125 -11.738281 12.117188 -11.25 11.953125 -10.75 C 11.796875 -10.257812 11.539062 -9.8125 11.1875 -9.40625 C 10.84375 -9.007812 10.398438 -8.679688 9.859375 -8.421875 C 9.328125 -8.171875 8.679688 -8.046875 7.921875 -8.046875 C 7.398438 -8.046875 6.921875 -8.066406 6.484375 -8.109375 C 6.054688 -8.148438 5.664062 -8.238281 5.3125 -8.375 Z M 5.3125 -16.5 "/></g></g></g><g fill="#fbdcc9" fill-opacity="1"><g transform="translate(147.150501, 267.282029)"><g><path d="M 12.796875 -5.1875 L 15.21875 0 L 17.65625 0 L 9.453125 -17.609375 L 8.203125 -17.609375 L 0.75 0 L 1.90625 0 L 4.125 -5.1875 Z M 12.28125 -6.3125 L 4.609375 -6.3125 L 8.21875 -14.796875 L 8.328125 -14.796875 Z M 12.28125 -6.3125 "/></g></g></g><g fill="#fbdcc9" fill-opacity="1"><g transform="translate(167.397161, 267.282029)"><g><path d="M 3.015625 -17.609375 L 3.015625 0 L 5.3125 0 L 5.3125 -7.765625 L 6.421875 -7.765625 C 6.890625 -7.765625 7.273438 -7.722656 7.578125 -7.640625 C 7.890625 -7.554688 8.171875 -7.414062 8.421875 -7.21875 C 8.679688 -7.019531 8.914062 -6.757812 9.125 -6.4375 C 9.34375 -6.125 9.601562 -5.726562 9.90625 -5.25 L 11.90625 -2.3125 C 12.15625 -1.925781 12.398438 -1.570312 12.640625 -1.25 C 12.878906 -0.9375 13.140625 -0.664062 13.421875 -0.4375 C 13.710938 -0.207031 14.035156 -0.03125 14.390625 0.09375 C 14.753906 0.226562 15.191406 0.296875 15.703125 0.296875 C 16.066406 0.296875 16.363281 0.28125 16.59375 0.25 C 16.832031 0.21875 17.070312 0.132812 17.3125 0 L 17.3125 -0.9375 C 17.226562 -0.914062 17.144531 -0.898438 17.0625 -0.890625 C 16.976562 -0.878906 16.890625 -0.875 16.796875 -0.875 C 16.453125 -0.875 16.144531 -0.925781 15.875 -1.03125 C 15.601562 -1.132812 15.347656 -1.28125 15.109375 -1.46875 C 14.878906 -1.664062 14.65625 -1.898438 14.4375 -2.171875 C 14.21875 -2.453125 13.992188 -2.769531 13.765625 -3.125 C 13.054688 -4.144531 12.507812 -4.957031 12.125 -5.5625 C 11.738281 -6.175781 11.429688 -6.648438 11.203125 -6.984375 C 10.984375 -7.328125 10.800781 -7.570312 10.65625 -7.71875 C 10.507812 -7.875 10.335938 -8 10.140625 -8.09375 L 9.890625 -8.21875 L 9.890625 -8.328125 C 10.691406 -8.378906 11.378906 -8.554688 11.953125 -8.859375 C 12.535156 -9.160156 13.007812 -9.535156 13.375 -9.984375 C 13.75 -10.441406 14.019531 -10.929688 14.1875 -11.453125 C 14.351562 -11.984375 14.4375 -12.5 14.4375 -13 C 14.4375 -13.457031 14.347656 -13.953125 14.171875 -14.484375 C 13.992188 -15.023438 13.691406 -15.523438 13.265625 -15.984375 C 12.835938 -16.441406 12.253906 -16.828125 11.515625 -17.140625 C 10.785156 -17.453125 9.859375 -17.609375 8.734375 -17.609375 Z M 5.3125 -16.5 L 7.84375 -16.5 C 8.488281 -16.5 9.066406 -16.40625 9.578125 -16.21875 C 10.085938 -16.039062 10.523438 -15.785156 10.890625 -15.453125 C 11.265625 -15.128906 11.546875 -14.738281 11.734375 -14.28125 C 11.929688 -13.832031 12.03125 -13.335938 12.03125 -12.796875 C 12.03125 -12.347656 11.941406 -11.890625 11.765625 -11.421875 C 11.585938 -10.960938 11.320312 -10.546875 10.96875 -10.171875 C 10.613281 -9.796875 10.179688 -9.488281 9.671875 -9.25 C 9.160156 -9.019531 8.570312 -8.90625 7.90625 -8.90625 L 5.3125 -8.90625 Z M 5.3125 -16.5 "/></g></g></g><g fill="#fbdcc9" fill-opacity="1"><g transform="translate(187.291726, 267.282029)"><g><path d="M 12.796875 -5.1875 L 15.21875 0 L 17.65625 0 L 9.453125 -17.609375 L 8.203125 -17.609375 L 0.75 0 L 1.90625 0 L 4.125 -5.1875 Z M 12.28125 -6.3125 L 4.609375 -6.3125 L 8.21875 -14.796875 L 8.328125 -14.796875 Z M 12.28125 -6.3125 "/></g></g></g><g fill="#fbdcc9" fill-opacity="1"><g transform="translate(207.538386, 267.282029)"><g><path d="M 3.265625 0 L 3.265625 -17.609375 L 9.0625 -17.609375 C 10.445312 -17.609375 11.71875 -17.382812 12.875 -16.9375 C 14.03125 -16.5 15.023438 -15.890625 15.859375 -15.109375 C 16.691406 -14.328125 17.335938 -13.398438 17.796875 -12.328125 C 18.253906 -11.253906 18.484375 -10.097656 18.484375 -8.859375 C 18.484375 -7.566406 18.242188 -6.378906 17.765625 -5.296875 C 17.296875 -4.210938 16.644531 -3.273438 15.8125 -2.484375 C 14.976562 -1.703125 14.007812 -1.09375 12.90625 -0.65625 C 11.800781 -0.21875 10.617188 0 9.359375 0 Z M 5.5625 -1.109375 L 8.328125 -1.109375 C 9.703125 -1.109375 10.867188 -1.335938 11.828125 -1.796875 C 12.796875 -2.253906 13.585938 -2.851562 14.203125 -3.59375 C 14.828125 -4.332031 15.28125 -5.160156 15.5625 -6.078125 C 15.851562 -6.992188 16 -7.90625 16 -8.8125 C 16 -9.8125 15.832031 -10.773438 15.5 -11.703125 C 15.164062 -12.640625 14.675781 -13.460938 14.03125 -14.171875 C 13.382812 -14.890625 12.582031 -15.457031 11.625 -15.875 C 10.664062 -16.289062 9.566406 -16.5 8.328125 -16.5 L 5.5625 -16.5 Z M 5.5625 -1.109375 "/></g></g></g><g fill="#fbdcc9" fill-opacity="1"><g transform="translate(228.614972, 267.282029)"><g><path d="M 4.03125 -17.609375 L 4.03125 0 L 6.3125 0 L 6.3125 -17.609375 Z M 4.03125 -17.609375 "/></g></g></g><g fill="#fbdcc9" fill-opacity="1"><g transform="translate(240.788648, 267.282029)"><g><path d="M 0.9375 -4.453125 C 0.96875 -3.734375 1.15625 -3.078125 1.5 -2.484375 C 1.84375 -1.898438 2.3125 -1.398438 2.90625 -0.984375 C 3.5 -0.578125 4.195312 -0.257812 5 -0.03125 C 5.8125 0.1875 6.691406 0.296875 7.640625 0.296875 C 8.617188 0.296875 9.5 0.179688 10.28125 -0.046875 C 11.0625 -0.285156 11.726562 -0.617188 12.28125 -1.046875 C 12.832031 -1.484375 13.257812 -2.015625 13.5625 -2.640625 C 13.863281 -3.265625 14.015625 -3.953125 14.015625 -4.703125 C 14.015625 -5.742188 13.753906 -6.59375 13.234375 -7.25 C 12.710938 -7.914062 12.0625 -8.46875 11.28125 -8.90625 C 10.5 -9.351562 9.648438 -9.726562 8.734375 -10.03125 C 7.828125 -10.332031 6.984375 -10.648438 6.203125 -10.984375 C 5.421875 -11.328125 4.769531 -11.710938 4.25 -12.140625 C 3.726562 -12.578125 3.46875 -13.160156 3.46875 -13.890625 C 3.46875 -14.285156 3.554688 -14.660156 3.734375 -15.015625 C 3.910156 -15.367188 4.171875 -15.675781 4.515625 -15.9375 C 4.859375 -16.195312 5.28125 -16.40625 5.78125 -16.5625 C 6.289062 -16.71875 6.867188 -16.796875 7.515625 -16.796875 C 8.609375 -16.796875 9.535156 -16.566406 10.296875 -16.109375 C 11.066406 -15.648438 11.515625 -14.925781 11.640625 -13.9375 L 13.359375 -13.9375 C 13.253906 -14.5625 13.023438 -15.117188 12.671875 -15.609375 C 12.328125 -16.109375 11.882812 -16.53125 11.34375 -16.875 C 10.8125 -17.21875 10.203125 -17.472656 9.515625 -17.640625 C 8.835938 -17.816406 8.128906 -17.90625 7.390625 -17.90625 C 6.617188 -17.90625 5.882812 -17.804688 5.1875 -17.609375 C 4.5 -17.410156 3.890625 -17.117188 3.359375 -16.734375 C 2.828125 -16.347656 2.40625 -15.859375 2.09375 -15.265625 C 1.789062 -14.679688 1.640625 -14.007812 1.640625 -13.25 C 1.640625 -12.257812 1.890625 -11.460938 2.390625 -10.859375 C 2.890625 -10.265625 3.519531 -9.765625 4.28125 -9.359375 C 5.050781 -8.953125 5.878906 -8.609375 6.765625 -8.328125 C 7.648438 -8.046875 8.472656 -7.722656 9.234375 -7.359375 C 10.003906 -6.992188 10.640625 -6.550781 11.140625 -6.03125 C 11.648438 -5.507812 11.90625 -4.816406 11.90625 -3.953125 C 11.90625 -2.859375 11.503906 -2.0625 10.703125 -1.5625 C 9.910156 -1.0625 8.847656 -0.8125 7.515625 -0.8125 C 6.460938 -0.8125 5.617188 -0.945312 4.984375 -1.21875 C 4.347656 -1.5 3.859375 -1.832031 3.515625 -2.21875 C 3.179688 -2.601562 2.957031 -3 2.84375 -3.40625 C 2.726562 -3.820312 2.660156 -4.171875 2.640625 -4.453125 Z M 0.9375 -4.453125 "/></g></g></g><g clip-path="url(#9e3bc224aa)"><path fill="#fbdcc9" d="M 188.902344 278.597656 L 187.496094 274.542969 L 186.085938 278.597656 L 181.796875 278.683594 L 185.214844 281.277344 L 183.972656 285.386719 L 187.496094 282.933594 L 191.019531 285.386719 L 189.773438 281.277344 L 193.195312 278.683594 Z M 188.902344 278.597656 " fill-opacity="1" fill-rule="nonzero"/></g><g clip-path="url(#f517bf38b6)"><path fill="#fbdcc9" d="M 172.683594 278.597656 L 171.273438 274.542969 L 169.863281 278.597656 L 165.574219 278.683594 L 168.992188 281.277344 L 167.75 285.386719 L 171.273438 282.933594 L 174.796875 285.386719 L 173.554688 281.277344 L 176.972656 278.683594 Z M 172.683594 278.597656 " fill-opacity="1" fill-rule="nonzero"/></g><g clip-path="url(#b8d67f7835)"><path fill="#fbdcc9" d="M 205.125 278.597656 L 203.71875 274.542969 L 202.308594 278.597656 L 198.015625 278.683594 L 201.4375 281.277344 L 200.195312 285.386719 L 203.71875 282.933594 L 207.238281 285.386719 L 205.996094 281.277344 L 209.417969 278.683594 Z M 205.125 278.597656 " fill-opacity="1" fill-rule="nonzero"/></g><g clip-path="url(#928bf16eae)"><path fill="#fbdcc9" d="M 156.460938 278.597656 L 155.050781 274.542969 L 153.640625 278.597656 L 149.351562 278.683594 L 152.769531 281.277344 L 151.527344 285.386719 L 155.050781 282.933594 L 158.574219 285.386719 L 157.332031 281.277344 L 160.75 278.683594 Z M 156.460938 278.597656 " fill-opacity="1" fill-rule="nonzero"/></g><g clip-path="url(#ebb907395d)"><path fill="#fbdcc9" d="M 221.347656 278.597656 L 219.9375 274.542969 L 218.53125 278.597656 L 214.238281 278.683594 L 217.660156 281.277344 L 216.417969 285.386719 L 219.9375 282.933594 L 223.460938 285.386719 L 222.21875 281.277344 L 225.640625 278.683594 Z M 221.347656 278.597656 " fill-opacity="1" fill-rule="nonzero"/></g><g clip-path="url(#161f916f68)"><path fill="#fbdcc9" d="M 144.347656 262.320312 C 143.984375 262.320312 143.636719 262.390625 143.300781 262.523438 C 142.964844 262.660156 142.664062 262.851562 142.402344 263.101562 C 142.140625 263.351562 141.933594 263.644531 141.78125 263.972656 C 141.632812 264.300781 141.546875 264.648438 141.53125 265.011719 L 12.339844 265.011719 L 12.050781 265.300781 L -23.882812 301.257812 L -31.675781 301.257812 L -31.675781 309.210938 L -23.726562 309.210938 L -23.726562 301.503906 L 12.445312 265.292969 L 141.53125 265.292969 C 141.550781 265.664062 141.636719 266.015625 141.796875 266.351562 C 141.953125 266.683594 142.167969 266.976562 142.441406 267.226562 C 142.714844 267.476562 143.023438 267.667969 143.371094 267.796875 C 143.71875 267.921875 144.078125 267.980469 144.449219 267.96875 C 144.820312 267.957031 145.171875 267.871094 145.511719 267.71875 C 145.847656 267.570312 146.144531 267.359375 146.398438 267.089844 C 146.652344 266.820312 146.847656 266.515625 146.980469 266.167969 C 147.117188 265.824219 147.179688 265.464844 147.171875 265.09375 C 147.167969 264.726562 147.089844 264.371094 146.945312 264.03125 C 146.796875 263.691406 146.59375 263.390625 146.328125 263.128906 C 146.0625 262.871094 145.761719 262.671875 145.417969 262.53125 C 145.074219 262.390625 144.71875 262.320312 144.347656 262.320312 Z M 144.347656 262.320312 " fill-opacity="1" fill-rule="nonzero"/></g><g clip-path="url(#3656e710d1)"><path fill="#fbdcc9" d="M 369.101562 262.320312 C 368.738281 262.320312 368.390625 262.390625 368.050781 262.523438 C 367.714844 262.660156 367.417969 262.851562 367.152344 263.101562 C 366.890625 263.351562 366.683594 263.644531 366.535156 263.972656 C 366.382812 264.300781 366.300781 264.648438 366.28125 265.011719 L 237.089844 265.011719 L 236.800781 265.300781 L 200.871094 301.257812 L 193.074219 301.257812 L 193.074219 309.210938 L 201.027344 309.210938 L 201.027344 301.503906 L 237.199219 265.292969 L 366.28125 265.292969 C 366.300781 265.664062 366.390625 266.015625 366.546875 266.351562 C 366.707031 266.683594 366.921875 266.976562 367.195312 267.226562 C 367.46875 267.476562 367.777344 267.667969 368.125 267.796875 C 368.472656 267.921875 368.832031 267.980469 369.203125 267.96875 C 369.570312 267.957031 369.925781 267.871094 370.261719 267.71875 C 370.601562 267.570312 370.898438 267.359375 371.152344 267.089844 C 371.40625 266.820312 371.601562 266.515625 371.734375 266.167969 C 371.867188 265.824219 371.933594 265.464844 371.925781 265.09375 C 371.917969 264.726562 371.84375 264.371094 371.695312 264.03125 C 371.550781 263.691406 371.34375 263.390625 371.082031 263.128906 C 370.816406 262.871094 370.511719 262.671875 370.171875 262.53125 C 369.828125 262.390625 369.472656 262.320312 369.101562 262.320312 Z M 369.101562 262.320312 " fill-opacity="1" fill-rule="nonzero"/></g><g clip-path="url(#82ffcd26a9)"><path fill="#784d2a" d="M 197.824219 167.046875 C 203.121094 164.097656 205.011719 161.457031 205.011719 161.457031 C 205.011719 161.457031 206.464844 162.839844 205.011719 164.976562 C 203.5625 167.109375 202.675781 168.304688 202.675781 168.304688 C 202.675781 168.304688 208.480469 167.238281 210.6875 163.65625 C 212.894531 160.074219 214.726562 159.824219 216.050781 160.328125 L 211.035156 166.011719 C 211.035156 166.011719 211.917969 166.042969 212.265625 165.855469 C 212.613281 165.667969 217.214844 160.800781 218.289062 160.265625 C 219.359375 159.730469 220.558594 160.171875 220.558594 160.171875 L 213.398438 167.269531 C 213.398438 167.269531 214.375 167.300781 215.449219 166.578125 C 216.523438 165.855469 220.9375 160.988281 222.007812 160.390625 C 223.082031 159.792969 224.4375 160.421875 224.4375 160.421875 L 216.050781 168.082031 C 216.050781 168.082031 217.121094 168.242188 217.75 167.738281 C 218.382812 167.238281 223.179688 162.714844 224.3125 162.179688 C 225.449219 161.648438 226.394531 162.304688 226.394531 162.304688 C 226.394531 162.304688 220.085938 169.152344 217.375 170.378906 C 214.660156 171.601562 202.648438 172.8125 197.308594 174.882812 C 192.328125 176.816406 190.695312 186.222656 192.65625 196.085938 C 194.65625 203.082031 203.074219 206 216.28125 207.945312 L 185.546875 207.945312 C 184.300781 197.941406 184.429688 174.507812 197.824219 167.046875 Z M 182.960938 207.863281 L 169.8125 207.863281 C 169.8125 207.863281 180.222656 204.433594 182.492188 202.09375 C 182.492188 202.09375 182.257812 204.746094 182.960938 207.863281 Z M 171.523438 161.574219 C 171.523438 161.574219 169.878906 162.375 171.300781 164.753906 C 172.71875 167.132812 174.617188 170.40625 173.425781 170.996094 C 172.226562 171.582031 166.664062 168.917969 166.664062 168.917969 C 168.390625 169.355469 170.117188 169.796875 171.796875 169.789062 C 170.210938 168.195312 169.1875 164.042969 168.53125 163.203125 C 167.871094 162.359375 167.003906 162.316406 167.003906 162.316406 L 169.183594 167.855469 L 168.335938 167.644531 C 168.335938 167.644531 166.421875 162.265625 165.894531 161.414062 C 165.371094 160.570312 163.882812 160.230469 163.882812 160.230469 L 166.601562 167.632812 C 166.601562 167.632812 165.773438 167.261719 165.40625 166.671875 C 165.03125 166.082031 163.246094 160.539062 162.703125 159.757812 C 162.164062 158.976562 160.703125 158.503906 160.703125 158.503906 L 163.402344 166.164062 C 163.402344 166.164062 162.601562 165.875 162.355469 165.335938 C 162.105469 164.800781 159.996094 158.492188 159.609375 157.972656 C 159.226562 157.449219 157.191406 157.046875 157.191406 157.046875 C 157.191406 157.046875 160.441406 167.5625 161.796875 169.964844 C 163.152344 172.363281 166.527344 173.667969 175.8125 174.738281 C 185.101562 175.804688 184.203125 183.332031 184.203125 183.332031 C 186.742188 177.5 188.003906 172.695312 180.929688 169.503906 C 175.707031 167.148438 172.675781 163.578125 171.523438 161.574219 Z M 171.523438 161.574219 " fill-opacity="1" fill-rule="evenodd"/></g><g clip-path="url(#8cc8cee592)"><path fill="#0e6939" d="M 153.824219 175.667969 L 159.683594 170.839844 L 158.460938 172.574219 C 159.382812 175.371094 155.902344 178.328125 152.410156 176.917969 C 152.410156 176.917969 151.90625 171.347656 157.597656 171.535156 Z M 225.710938 175.777344 L 220.230469 171.257812 L 221.371094 172.882812 C 220.515625 175.496094 223.765625 178.261719 227.03125 176.941406 C 227.03125 176.941406 227.5 171.734375 222.179688 171.90625 Z M 236.945312 166.367188 L 228.46875 164.058594 L 230.582031 165.304688 C 230.953125 168.683594 236.023438 170.148438 239.023438 167.011719 C 239.023438 167.011719 236.898438 160.914062 230.996094 163.800781 Z M 196.988281 159.199219 L 190.8125 165.144531 L 192.917969 163.996094 C 195.960938 165.371094 199.726562 161.855469 198.574219 157.78125 C 198.574219 157.78125 192.359375 156.519531 191.855469 162.898438 Z M 168.433594 159.242188 L 173.59375 157.914062 L 172.300781 158.652344 C 172.046875 160.695312 168.960938 161.542969 167.167969 159.617188 C 167.167969 159.617188 168.507812 155.933594 172.066406 157.734375 Z M 147.984375 157.1875 L 155.738281 156.519531 L 153.699219 157.269531 C 152.832031 160.15625 148.179688 160.628906 146.066406 157.421875 C 146.066406 157.421875 148.894531 152.4375 153.578125 155.890625 Z M 215.441406 152.207031 L 203.945312 151.476562 L 206.988281 152.519531 C 208.367188 156.761719 215.265625 157.304688 218.28125 152.484375 C 218.28125 152.484375 213.929688 145.214844 207.121094 150.480469 Z M 178.738281 146.703125 L 186.800781 151.277344 L 184.289062 150.636719 C 181.480469 152.886719 176.59375 150.210938 176.703125 145.640625 C 176.703125 145.640625 182.867188 142.664062 185.105469 149.207031 Z M 235.0625 139.566406 L 224.027344 141.933594 L 227.175781 142.109375 C 229.609375 145.742188 236.261719 144.421875 237.8125 139.074219 C 237.8125 139.074219 231.761719 133.375 226.753906 140.148438 Z M 145.109375 139.566406 L 156.140625 141.933594 L 152.992188 142.109375 C 150.554688 145.742188 143.90625 144.421875 142.355469 139.074219 C 142.351562 139.074219 148.40625 133.375 153.414062 140.148438 Z M 162.75 134.148438 L 174.292969 139.863281 L 170.757812 139.171875 C 167.039062 142.511719 160.046875 139.183594 159.839844 132.828125 C 159.839844 132.828125 168.152344 128.21875 171.785156 137.125 Z M 217.414062 134.148438 L 205.871094 139.863281 L 209.410156 139.171875 C 213.128906 142.511719 220.117188 139.183594 220.328125 132.828125 C 220.328125 132.828125 212.015625 128.21875 208.386719 137.125 Z M 183.179688 129.644531 L 185.621094 138.253906 L 184.324219 136.113281 C 180.851562 135.765625 179.304688 130.613281 182.5 127.53125 C 182.5 127.53125 188.78125 129.648438 185.867188 135.679688 Z M 193.648438 119.625 L 192.878906 128.082031 L 193.714844 125.863281 C 196.894531 124.929688 197.433594 119.855469 193.914062 117.535156 C 193.914062 117.535156 188.421875 120.597656 192.199219 125.722656 Z M 168.796875 115.792969 L 175.179688 126.195312 L 172.6875 123.863281 C 168 124.671875 164.070312 118.484375 167.125 113.269531 C 167.125 113.269531 176.148438 113.746094 174.546875 122.730469 Z M 168.796875 115.792969 " fill-opacity="1" fill-rule="evenodd"/></g><g clip-path="url(#96f9f0b660)"><path fill="#76b242" d="M 218.757812 175.285156 L 216.554688 172.828125 L 216.96875 173.652344 C 216.390625 174.796875 217.691406 176.292969 219.285156 175.914062 C 219.28125 175.914062 219.867188 173.550781 217.40625 173.261719 Z M 160.679688 175.285156 L 162.886719 172.828125 L 162.476562 173.652344 C 163.050781 174.796875 161.75 176.292969 160.15625 175.914062 C 160.15625 175.914062 159.574219 173.550781 162.035156 173.261719 Z M 229.234375 169.953125 L 223.472656 167.238281 L 224.824219 168.394531 C 224.664062 170.855469 228.101562 172.539062 230.640625 170.675781 C 230.640625 170.675781 229.890625 166.050781 225.308594 167.375 Z M 183.640625 161.453125 L 189.890625 168.40625 L 187.691406 166.988281 C 184.273438 168.25 180.453125 164.128906 182.03125 159.78125 C 182.03125 159.78125 188.890625 158.894531 188.933594 165.882812 Z M 147.25 163.703125 L 152.734375 162.207031 L 151.367188 163.015625 C 151.125 165.203125 147.847656 166.152344 145.90625 164.121094 C 145.90625 164.121094 147.277344 160.171875 151.097656 162.042969 Z M 237.421875 157.476562 L 225.945312 156.484375 L 228.964844 157.59375 C 230.242188 161.867188 237.128906 162.566406 240.253906 157.820312 C 240.253906 157.820312 236.070312 150.449219 229.144531 155.558594 Z M 206.765625 157.527344 L 200.925781 158.6875 L 202.585938 158.804688 C 203.839844 160.742188 207.359375 160.097656 208.222656 157.292969 C 208.222656 157.292969 205.078125 154.234375 202.378906 157.769531 Z M 184.246094 154.484375 L 188.824219 159.046875 L 187.253906 158.15625 C 184.945312 159.152344 182.148438 156.457031 183.070312 153.398438 C 183.070312 153.398438 187.769531 152.519531 188.070312 157.339844 Z M 164.726562 152.207031 L 176.222656 151.476562 L 173.175781 152.519531 C 171.800781 156.761719 164.902344 157.304688 161.886719 152.484375 C 161.886719 152.484375 166.238281 145.214844 173.046875 150.480469 Z M 202.839844 152.699219 L 196.914062 154.121094 L 198.617188 154.171875 C 199.976562 156.105469 203.550781 155.300781 204.316406 152.398438 C 204.316406 152.398438 200.976562 149.398438 198.359375 153.125 Z M 242.1875 149.992188 L 233.578125 150.175781 L 235.914062 150.761719 C 237.207031 153.832031 242.382812 153.800781 244.320312 150.023438 C 244.320312 150.023438 240.617188 144.878906 235.878906 149.230469 Z M 230.3125 148.210938 L 220.519531 148.949219 L 223.214844 149.46875 C 224.878906 152.890625 230.769531 152.539062 232.746094 148.113281 C 232.746094 148.113281 228.210938 142.484375 223.082031 147.730469 Z M 149.855469 148.210938 L 159.648438 148.949219 L 156.953125 149.46875 C 155.289062 152.890625 149.398438 152.539062 147.421875 148.113281 C 147.421875 148.113281 151.957031 142.484375 157.085938 147.730469 Z M 196.191406 145.96875 L 191.640625 149.933594 L 193.160156 149.199219 C 195.25 150.273438 198.019531 147.929688 197.351562 145.023438 C 197.351562 145.023438 193.03125 143.917969 192.453125 148.390625 Z M 189.03125 141.136719 L 188.773438 149.015625 L 188.257812 146.871094 C 185.433594 145.65625 185.519531 140.921875 189.027344 139.183594 C 189.027344 139.183594 193.730469 142.628906 189.667969 146.917969 Z M 207.316406 144.558594 L 198.074219 147.855469 L 200.8125 147.648438 C 203.324219 150.503906 208.90625 148.605469 209.632812 143.820312 C 209.632812 143.820312 203.761719 139.59375 200.21875 146.007812 Z M 220.398438 143.648438 L 211.804688 145.492188 L 214.257812 145.628906 C 216.15625 148.457031 221.332031 147.429688 222.539062 143.265625 C 222.539062 143.265625 217.828125 138.828125 213.925781 144.101562 Z M 159.769531 143.648438 L 168.363281 145.492188 L 165.910156 145.628906 C 164.011719 148.457031 158.835938 147.429688 157.625 143.265625 C 157.625 143.265625 162.339844 138.828125 166.238281 144.101562 Z M 169.945312 142.710938 L 175.539062 144.710938 L 173.886719 144.582031 C 172.359375 146.3125 168.980469 145.164062 168.539062 142.265625 C 168.539062 142.265625 172.097656 139.707031 174.242188 143.589844 Z M 179.769531 138.789062 L 185.039062 144.988281 L 183.160156 143.703125 C 180.160156 144.71875 176.933594 141.042969 178.410156 137.300781 C 178.410156 137.300781 184.398438 136.691406 184.265625 142.769531 Z M 196.414062 131.601562 L 193.085938 143.335938 L 194.855469 140.417969 C 199.585938 139.941406 201.691406 132.921875 197.339844 128.726562 C 197.339844 128.726562 188.78125 131.605469 192.753906 139.828125 Z M 207.210938 129.664062 L 202.125 135.957031 L 203.964844 134.636719 C 206.972656 135.570312 210.085938 131.835938 208.527344 128.152344 C 208.527344 128.152344 202.5625 127.695312 202.839844 133.734375 Z M 189.191406 127.210938 L 189.007812 132.828125 L 188.640625 131.300781 C 186.625 130.433594 186.6875 127.054688 189.1875 125.8125 C 189.1875 125.8125 192.546875 128.273438 189.648438 131.335938 Z M 225.46875 128.628906 L 220.839844 132.203125 L 222.351562 131.582031 C 224.3125 132.738281 227.125 130.628906 226.644531 127.78125 C 226.644531 127.78125 222.527344 126.46875 221.710938 130.761719 Z M 154.699219 128.628906 L 159.324219 132.203125 L 157.8125 131.582031 C 155.855469 132.738281 153.046875 130.628906 153.523438 127.78125 C 153.523438 127.78125 157.640625 126.46875 158.457031 130.761719 Z M 218.246094 123.542969 L 211.628906 130.054688 L 213.894531 128.785156 C 217.203125 130.234375 221.238281 126.386719 219.941406 121.988281 C 219.941406 121.984375 213.203125 120.691406 212.730469 127.609375 Z M 161.921875 123.542969 L 168.539062 130.054688 L 166.269531 128.785156 C 162.964844 130.234375 158.929688 126.386719 160.222656 121.988281 C 160.222656 121.984375 166.964844 120.691406 167.4375 127.609375 Z M 178.835938 120.28125 L 181.007812 128.433594 L 179.816406 126.394531 C 176.546875 126.011719 175.167969 121.136719 178.226562 118.277344 C 178.226562 118.277344 184.117188 120.367188 181.277344 126.011719 Z M 211.371094 115.792969 L 204.988281 126.195312 L 207.480469 123.863281 C 212.167969 124.671875 216.097656 118.484375 213.042969 113.269531 C 213.042969 113.269531 204.019531 113.746094 205.621094 122.730469 Z M 188.296875 114.003906 L 188.613281 122.339844 L 187.910156 120.117188 C 184.839844 119.042969 184.570312 114.039062 188.144531 111.945312 C 188.144531 111.945312 193.367188 115.230469 189.402344 120.0625 Z M 188.296875 114.003906 " fill-opacity="1" fill-rule="evenodd"/></g><path fill="#8fcee0" d="M 150.640625 169.480469 L 158.195312 165.929688 L 156.421875 167.441406 C 156.632812 170.664062 152.128906 172.871094 148.800781 170.425781 C 148.800781 170.425781 149.78125 164.367188 155.785156 166.101562 Z M 175.273438 155.453125 L 182.40625 157.484375 L 180.335938 157.460938 C 178.582031 159.742188 174.273438 158.589844 173.488281 155.015625 C 173.488281 155.015625 177.703125 151.535156 180.699219 156.195312 Z M 193.964844 152.578125 L 189.171875 157.910156 L 190.863281 156.824219 C 193.480469 157.789062 196.410156 154.628906 195.199219 151.292969 C 195.199219 151.292969 189.9375 150.617188 189.90625 155.972656 Z M 223.941406 155.710938 L 217.027344 155.113281 L 218.847656 155.78125 C 219.617188 158.355469 223.765625 158.777344 225.648438 155.914062 C 225.648438 155.914062 223.128906 151.476562 218.953125 154.554688 Z M 157.398438 154.804688 L 162.238281 154.386719 L 160.964844 154.855469 C 160.425781 156.65625 157.519531 156.953125 156.203125 154.949219 C 156.203125 154.949219 157.96875 151.839844 160.886719 153.996094 Z M 201.808594 138.671875 L 197.097656 143.320312 L 198.714844 142.410156 C 201.070312 143.441406 203.945312 140.695312 203.011719 137.558594 C 203.011719 137.558594 198.207031 136.648438 197.882812 141.578125 Z M 225.105469 136.007812 L 219.582031 138.746094 L 221.273438 138.414062 C 223.054688 140.007812 226.398438 138.417969 226.496094 135.378906 C 226.496094 135.378906 222.519531 133.171875 220.785156 137.433594 Z M 155.0625 136.007812 L 160.585938 138.746094 L 158.894531 138.414062 C 157.113281 140.007812 153.769531 138.417969 153.671875 135.378906 C 153.671875 135.378906 157.648438 133.171875 159.382812 137.433594 Z M 172.953125 129.664062 L 178.042969 135.957031 L 176.203125 134.636719 C 173.195312 135.570312 170.082031 131.835938 171.640625 128.152344 C 171.640625 128.152344 177.605469 127.695312 177.328125 133.734375 Z M 201.476562 120.15625 L 199.441406 127.796875 L 200.558594 125.886719 C 203.621094 125.527344 204.914062 120.957031 202.046875 118.277344 C 202.046875 118.277344 196.527344 120.234375 199.1875 125.527344 Z M 185.40625 122.535156 L 186.375 127.304688 L 185.757812 126.09375 C 183.890625 125.761719 183.265625 122.902344 185.125 121.363281 C 185.125 121.363281 188.445312 122.765625 186.613281 125.921875 Z M 185.40625 122.535156 " fill-opacity="1" fill-rule="evenodd"/></svg>